<svg width="93" height="35" viewBox="0 0 93 35" fill="none" xmlns="http://www.w3.org/2000/svg">
<path d="M14.7763 7.33884H19.2126V5.80755H14.7763V2.94764H19.8759V1.41431H14.7763H13.892H13.1857V11.7321H14.7763V7.33884Z" fill="white"/>
<path d="M25.0665 5.45341C25.2045 5.45443 25.3419 5.47161 25.4759 5.50458C25.6093 5.53608 25.74 5.57784 25.8669 5.62947L26.2641 3.97944C26.1479 3.93231 26.0271 3.89732 25.9038 3.87503C25.7457 3.84597 25.5854 3.83158 25.4247 3.83204C25.057 3.83267 24.695 3.92333 24.3704 4.09612C24.0273 4.27725 23.7222 4.52258 23.4717 4.81878C23.3067 5.01053 23.169 5.22407 23.0623 5.45341V3.99376H21.5289V11.7321H23.0623V7.4576C23.059 7.18632 23.1142 6.91751 23.224 6.66943C23.3292 6.43346 23.4763 6.21846 23.658 6.0348C23.8403 5.85298 24.0557 5.70774 24.2926 5.60694C24.5372 5.50281 24.8007 5.45053 25.0665 5.45341Z" fill="white"/>
<path d="M33.8215 10.694L33.0497 9.60901C32.7358 9.89917 32.3743 10.1332 31.9811 10.301C31.6402 10.4318 31.2776 10.4971 30.9125 10.4934C30.4156 10.5039 29.9236 10.3929 29.4794 10.1699C29.0767 9.96339 28.7435 9.64304 28.5214 9.24871C28.3458 8.93303 28.2371 8.58461 28.202 8.22512H34.1224L34.1368 7.57616C34.1516 7.06704 34.0689 6.55978 33.8932 6.08172C33.7313 5.63969 33.4805 5.23558 33.1562 4.89436C32.8367 4.55969 32.454 4.29179 32.0302 4.10619C31.5891 3.91225 31.1119 3.81387 30.63 3.81754C30.087 3.81278 29.5484 3.91576 29.0454 4.12053C28.5718 4.31355 28.1447 4.60526 27.7925 4.97625C27.4372 5.35338 27.159 5.79638 26.9737 6.2803C26.7718 6.81165 26.6718 7.37628 26.6789 7.94466C26.6645 8.65808 26.8458 9.36182 27.203 9.97955C27.5452 10.5653 28.0406 11.0465 28.636 11.3716C29.2855 11.72 30.0138 11.8956 30.7507 11.8814C31.1273 11.88 31.5019 11.8277 31.8644 11.7258C32.2369 11.6282 32.5979 11.4909 32.9412 11.3164C33.2651 11.1557 33.5621 10.9458 33.8215 10.694ZM29.2952 5.52694C29.7099 5.3136 30.172 5.20933 30.6381 5.22395C30.9606 5.22125 31.2789 5.29713 31.5655 5.44504C31.8468 5.59095 32.0895 5.80141 32.2738 6.0592C32.4599 6.31305 32.5718 6.61352 32.5973 6.92721V7.00909H28.2696C28.3131 6.79695 28.3818 6.59077 28.4743 6.39494C28.6497 6.02431 28.9368 5.71792 29.2952 5.51875V5.52694Z" fill="white"/>
<path d="M37.2907 11.3699C37.9409 11.7186 38.6699 11.8942 39.4075 11.8797C39.7834 11.8781 40.1573 11.8258 40.5191 11.7241C40.8917 11.6264 41.2527 11.4892 41.596 11.3146C41.9128 11.1549 42.2034 10.9478 42.4578 10.7005L41.6922 9.62366C41.3776 9.91295 41.0163 10.1469 40.6235 10.3156C40.2826 10.4463 39.9201 10.5116 39.5549 10.508C39.0581 10.5182 38.5662 10.4072 38.1219 10.1846C37.7196 9.97745 37.3866 9.65725 37.1638 9.26336C36.989 8.94752 36.881 8.59911 36.8465 8.23977H42.7649L42.7792 7.59081C42.7937 7.08188 42.7117 6.57482 42.5377 6.09637C42.377 5.65781 42.1289 5.25652 41.8082 4.9169C41.4876 4.57728 41.1013 4.30644 40.6727 4.12084C40.2316 3.92672 39.7543 3.82833 39.2724 3.83219C38.7294 3.82743 38.1908 3.9304 37.6879 4.13517C37.2142 4.32819 36.7871 4.61991 36.435 4.99089C36.0797 5.36803 35.8015 5.81103 35.6162 6.29495C35.4143 6.8263 35.3142 7.39093 35.3213 7.9593C35.307 8.67273 35.4882 9.37646 35.8454 9.9942C36.1933 10.5755 36.693 11.0511 37.2907 11.3699ZM37.9336 5.51906C38.3475 5.30573 38.809 5.20145 39.2745 5.21608C39.597 5.21338 39.9152 5.28927 40.2018 5.43718C40.4831 5.58308 40.7259 5.79355 40.9102 6.05133C41.0962 6.30518 41.2082 6.60565 41.2336 6.91933V7.00941H36.9079C36.9505 6.79701 37.0192 6.59072 37.1126 6.39526C37.2877 6.02439 37.5749 5.7179 37.9336 5.51906Z" fill="white"/>
<path d="M48.7011 11.7011C49.0238 11.5929 49.3271 11.434 49.5998 11.2303C49.8149 11.0702 50.0065 10.8807 50.1689 10.6673V11.7318H51.6797V0.824463H50.1627V4.94953C50.0208 4.78861 49.8623 4.64314 49.6899 4.51553C49.3962 4.30025 49.0709 4.13175 48.7256 4.01602C48.2343 3.85053 47.7128 3.79446 47.1976 3.85175C46.6823 3.90904 46.1858 4.0783 45.7429 4.34766C45.1881 4.70102 44.7373 5.19561 44.4368 5.78068C44.119 6.42472 43.9537 7.13324 43.9537 7.8514C43.9537 8.56957 44.119 9.2781 44.4368 9.92213C44.7417 10.5081 45.1967 11.0026 45.7552 11.3552C46.3236 11.7085 46.9817 11.8904 47.6509 11.8792C48.0085 11.8805 48.3638 11.8203 48.7011 11.7011ZM45.8125 9.24452C45.6128 8.80724 45.5094 8.33213 45.5094 7.8514C45.5094 7.37068 45.6128 6.89558 45.8125 6.4583C45.9986 6.06736 46.2864 5.73363 46.6457 5.49203C47.0117 5.2606 47.4359 5.13775 47.8689 5.13775C48.3019 5.13775 48.7261 5.2606 49.0921 5.49203C49.4509 5.73423 49.7385 6.0678 49.9253 6.4583C50.1236 6.89597 50.2261 7.37092 50.2261 7.8514C50.2261 8.33189 50.1236 8.80685 49.9253 9.24452C49.7384 9.63443 49.4508 9.96732 49.0921 10.2087C48.7261 10.4402 48.3019 10.563 47.8689 10.563C47.4359 10.563 47.0117 10.4402 46.6457 10.2087C46.287 9.96905 45.9993 9.63747 45.8125 9.24861V9.24452Z" fill="white"/>
<path d="M59.2674 11.3549C59.8568 11.012 60.3432 10.5171 60.6759 9.92187C61.0146 9.28422 61.1918 8.57319 61.1918 7.85115C61.1918 7.1291 61.0146 6.41808 60.6759 5.78043C60.343 5.18538 59.8566 4.69051 59.2674 4.3474C58.6497 4.00505 57.9551 3.82544 57.2489 3.82544C56.5427 3.82544 55.8481 4.00505 55.2304 4.3474C54.6412 4.69051 54.1548 5.18538 53.8219 5.78043C53.4832 6.41808 53.306 7.1291 53.306 7.85115C53.306 8.57319 53.4832 9.28422 53.8219 9.92187C54.1546 10.5171 54.641 11.012 55.2304 11.3549C55.8476 11.6986 56.5424 11.8789 57.2489 11.8789C57.9554 11.8789 58.6502 11.6986 59.2674 11.3549ZM55.1587 9.20331C54.9645 8.78008 54.864 8.31989 54.864 7.85422C54.864 7.38855 54.9645 6.92836 55.1587 6.50513C55.3555 6.11898 55.6533 5.7935 56.0206 5.56342C56.3957 5.33843 56.8248 5.21957 57.2622 5.21957C57.6996 5.21957 58.1288 5.33843 58.5038 5.56342C58.869 5.79148 59.1649 6.11499 59.3596 6.49899C59.5714 6.92126 59.6728 7.39033 59.6543 7.86241C59.6722 8.32984 59.5707 8.79412 59.3596 9.2115C59.1646 9.59745 58.8689 9.92352 58.5038 10.1552C58.1363 10.3866 57.7097 10.5067 57.2755 10.5012C56.8354 10.5079 56.4026 10.3878 56.0288 10.1552C55.6569 9.92386 55.3558 9.5945 55.1587 9.20331Z" fill="white"/>
<path d="M69.344 11.7321V7.10343C69.3412 6.85282 69.3914 6.60445 69.4914 6.37463C69.5881 6.15506 69.7272 5.95678 69.9008 5.79119C70.0826 5.62236 70.2953 5.49028 70.5273 5.40222C70.7741 5.30706 71.0366 5.25914 71.3011 5.26097C71.6044 5.24807 71.9054 5.3189 72.1712 5.46568C72.4049 5.61273 72.5834 5.83299 72.6789 6.09212C72.8039 6.43899 72.8616 6.80657 72.8488 7.17508V11.7301H74.3821V7.0891C74.3991 6.47669 74.3019 5.86646 74.0955 5.28963C73.935 4.84771 73.6345 4.47032 73.2398 4.21486C72.8047 3.96498 72.3082 3.84226 71.8068 3.8607C71.5285 3.8617 71.2521 3.90661 70.9879 3.99376C70.7123 4.08205 70.4494 4.20594 70.2059 4.36226C69.9665 4.51457 69.7466 4.69536 69.5508 4.90067C69.3874 5.07482 69.2496 5.27125 69.1413 5.48411C69.0577 5.22009 68.9334 4.97075 68.7728 4.74508C68.5633 4.45551 68.2807 4.22665 67.954 4.08179C67.5853 3.92771 67.1886 3.8524 66.7891 3.8607C66.4844 3.86137 66.1822 3.91613 65.8965 4.02242C65.6052 4.13019 65.3297 4.27687 65.0777 4.45848C64.8351 4.63257 64.6216 4.844 64.4451 5.08491C64.4103 5.132 64.3796 5.17908 64.3489 5.22617V3.99786H62.8156V11.7362H64.3489V7.07477C64.3469 6.82821 64.3971 6.58401 64.4963 6.35826C64.5916 6.14092 64.7311 5.94574 64.9057 5.78504C65.0849 5.62044 65.2932 5.49063 65.5199 5.40222C65.7637 5.30659 66.0236 5.25864 66.2855 5.26097C66.5743 5.25272 66.859 5.32961 67.1044 5.48207C67.3383 5.63735 67.5185 5.86116 67.6203 6.12283C67.7471 6.4488 67.8077 6.79678 67.7984 7.14642V11.7301L69.344 11.7321Z" fill="white"/>
<path d="M19.9209 20.3568H14.7763V15.9492H13.1857V26.267H14.7763V21.8901H19.9209V26.267H21.5136V15.9492H19.9209V20.3568Z" fill="white"/>
<path d="M29.2941 23.1816C29.2966 23.4441 29.2465 23.7044 29.1466 23.9472C29.0543 24.1781 28.9148 24.3873 28.7372 24.5614C28.5607 24.731 28.3518 24.8633 28.123 24.9503C27.8745 25.0469 27.6097 25.0949 27.3431 25.0916C26.9971 25.1021 26.6557 25.0095 26.3625 24.8254C26.0862 24.6397 25.8721 24.375 25.7483 24.0659C25.6002 23.6939 25.5305 23.2952 25.5436 22.895V18.5283H24.0267V23.3044C24.0119 23.8723 24.1253 24.4363 24.3583 24.9544C24.5616 25.3968 24.8887 25.7708 25.3 26.0312C25.7317 26.2921 26.2287 26.4248 26.733 26.4141C27.1561 26.416 27.5748 26.3281 27.9613 26.1561C28.3356 25.9901 28.6737 25.7523 28.9563 25.456C29.0809 25.3248 29.192 25.1815 29.2879 25.0281V26.2667H30.8069V18.5283H29.2879L29.2941 23.1816Z" fill="white"/>
<path d="M43.335 18.7492C42.9943 18.5615 42.619 18.445 42.2318 18.407C41.8447 18.369 41.4538 18.4102 41.0831 18.5281C40.808 18.616 40.5458 18.7399 40.3032 18.8966C40.0628 19.0484 39.8421 19.2292 39.646 19.435C39.4826 19.6092 39.3448 19.8056 39.2366 20.0185C39.1529 19.7544 39.0286 19.5051 38.8681 19.2794C38.6585 18.9899 38.376 18.761 38.0492 18.6161C37.6806 18.4621 37.2838 18.3868 36.8843 18.395C36.5796 18.3957 36.2774 18.4505 35.9918 18.5568C35.7004 18.6645 35.425 18.8112 35.1729 18.9928C34.9303 19.1669 34.7168 19.3784 34.5403 19.6193C34.5055 19.6664 34.4748 19.7134 34.4441 19.7605V18.5322H32.9108V26.2706H34.4441V21.6091C34.4421 21.3626 34.4924 21.1184 34.5915 20.8926C34.6863 20.6749 34.8258 20.4796 35.001 20.3194C35.1797 20.1542 35.3881 20.0243 35.6151 19.9366C35.8589 19.8409 36.1189 19.793 36.3808 19.7953C36.6694 19.7878 36.954 19.8646 37.1996 20.0164C37.4325 20.1729 37.6124 20.3963 37.7155 20.6572C37.8409 20.9835 37.9007 21.3313 37.8916 21.6808V26.2644H39.4249V21.6378C39.4221 21.3872 39.4723 21.1388 39.5723 20.909C39.669 20.6894 39.8081 20.4911 39.9817 20.3255C40.1635 20.1567 40.3763 20.0246 40.6082 19.9366C40.855 19.8414 41.1175 19.7935 41.382 19.7953C41.6853 19.7824 41.9863 19.8533 42.252 20C42.4858 20.1476 42.6649 20.3676 42.7618 20.6265C42.8851 20.9737 42.9421 21.3411 42.9297 21.7094V26.2644H44.463V21.6235C44.48 21.011 44.3828 20.4008 44.1764 19.824C44.0196 19.3841 43.7244 19.007 43.335 18.7492Z" fill="white"/>
<path d="M52.1872 19.7017C52.0293 19.448 51.8324 19.2207 51.6038 19.0282C51.3439 18.8121 51.0471 18.645 50.7276 18.5348C50.3719 18.4131 49.998 18.3536 49.6221 18.3587C48.9711 18.3494 48.3312 18.5286 47.7796 18.8746C47.2292 19.2247 46.7819 19.7151 46.4838 20.2954C46.1562 20.9361 45.9916 21.6477 46.0048 22.3671C45.9933 23.0828 46.1548 23.7908 46.4756 24.4307C46.7657 25.0122 47.1999 25.5097 47.7367 25.876C48.2516 26.2256 48.8606 26.4105 49.4829 26.4062C49.8466 26.4077 50.208 26.3475 50.5515 26.2281C50.882 26.1157 51.1949 25.9572 51.481 25.7572C51.7472 25.5733 51.981 25.3464 52.1729 25.0858V26.269H53.7267V18.5307H52.1954L52.1872 19.7017ZM51.9436 23.7305C51.7566 24.1127 51.4684 24.4363 51.1104 24.6661C50.7431 24.8973 50.316 25.0154 49.8821 25.0059C49.4574 25.0138 49.0399 24.8955 48.6825 24.6661C48.3303 24.4336 48.0474 24.1104 47.8636 23.7305C47.6568 23.3063 47.5537 22.839 47.5627 22.3671C47.5543 21.9025 47.6575 21.4427 47.8636 21.0262C48.0498 20.6496 48.3323 20.329 48.6825 20.0968C49.0405 19.8689 49.4577 19.7514 49.8821 19.759C50.3157 19.7499 50.7425 19.8672 51.1104 20.0968C51.4664 20.3264 51.7542 20.6474 51.9436 21.0262C52.1497 21.4427 52.2529 21.9025 52.2446 22.3671C52.2548 22.8418 52.1517 23.312 51.9436 23.7387V23.7305Z" fill="white"/>
<path d="M61.368 18.7128C60.9557 18.4984 60.5001 18.3804 60.0356 18.3676C59.571 18.3548 59.1096 18.4477 58.6862 18.6391C58.305 18.8106 57.9582 19.05 57.6626 19.3454C57.5477 19.4645 57.4443 19.594 57.3535 19.7323V18.5286H55.8345V26.2669H57.3535V21.5789C57.3518 21.3324 57.4042 21.0885 57.507 20.8644C57.6099 20.6443 57.7553 20.4467 57.9349 20.283C58.1215 20.1129 58.339 19.9802 58.5756 19.892C58.8375 19.7945 59.1151 19.7466 59.3945 19.7507C59.7094 19.722 60.0261 19.7808 60.3096 19.9207C60.5614 20.06 60.7546 20.2853 60.8541 20.5553C60.9833 20.9062 61.0438 21.2788 61.0322 21.6526V26.2669H62.5492V21.5441C62.5682 20.9362 62.468 20.3304 62.2544 19.761C62.0835 19.3229 61.7716 18.9542 61.368 18.7128Z" fill="white"/>
<path d="M66.3811 18.5283H64.8621V26.2667H66.3811V18.5283Z" fill="white"/>
<path d="M65.6005 14.9029C65.4649 14.8953 65.3293 14.9148 65.2013 14.9601C65.0734 15.0054 64.9558 15.0758 64.8553 15.167C64.6826 15.3593 64.5872 15.6087 64.5872 15.8671C64.5872 16.1256 64.6826 16.3749 64.8553 16.5673C65.064 16.7462 65.3343 16.8366 65.6086 16.8191C65.744 16.8261 65.8793 16.8062 66.0069 16.7605C66.1345 16.7148 66.2517 16.6443 66.3518 16.5529C66.4429 16.4629 66.5141 16.3549 66.561 16.2357C66.6079 16.1166 66.6294 15.9889 66.624 15.861C66.632 15.731 66.6126 15.6008 66.5671 15.4788C66.5216 15.3568 66.451 15.2457 66.3599 15.1527C66.1491 14.9735 65.8765 14.8839 65.6005 14.9029Z" fill="white"/>
<path d="M71.1848 16.553H69.6678V18.5285H68.0608V20.0025H69.6678V26.2669H71.1848V20.0025H72.9842V18.5285H71.1848V16.553Z" fill="white"/>
<path d="M80 18.5284L77.9794 24.1151C77.9118 24.3198 77.8402 24.5246 77.7747 24.7293L77.7522 24.6617C77.7035 24.5079 77.6447 24.3574 77.5761 24.2113L75.1584 18.5222H73.3794L76.9702 26.6331L75.6641 29.6507H77.3018L78.614 26.2606L81.7974 18.5222L80 18.5284Z" fill="white"/>
<path d="M62.9692 14.3911H-26.2183V14.5958H62.9692V14.3911Z" fill="#36A9E1"/>
<path d="M100.197 14.3911H75.7554V14.5958H100.197V14.3911Z" fill="#36A9E1"/>
<path d="M81.7963 10.0533L81.4769 10.1762V10.1946C81.5968 10.2803 81.6938 10.3942 81.7594 10.5262C81.8178 10.6675 81.8451 10.8197 81.8393 10.9725C81.8445 11.0698 81.83 11.1671 81.7966 11.2586C81.7631 11.35 81.7115 11.4338 81.6448 11.5048C81.572 11.5744 81.4859 11.6284 81.3915 11.6636C81.2972 11.6988 81.1967 11.7144 81.0961 11.7095C80.9891 11.7179 80.8818 11.6982 80.7848 11.6522C80.6879 11.6062 80.6046 11.5356 80.5434 11.4475C80.405 11.2081 80.3342 10.9357 80.3387 10.6593L80.3244 10.2499H80.222C80.1728 10.2435 80.1228 10.2487 80.076 10.2651C80.0292 10.2814 79.9868 10.3085 79.9523 10.344C79.9177 10.3796 79.8919 10.4227 79.8769 10.4699C79.8619 10.5172 79.8581 10.5673 79.8658 10.6163C79.8767 10.846 79.9345 11.071 80.0357 11.2775L79.6038 11.4823C79.4631 11.2039 79.3928 10.8953 79.399 10.5835C79.3816 10.3256 79.4539 10.0695 79.6038 9.85885C79.6803 9.773 79.7754 9.70572 79.8818 9.66209C79.9882 9.61846 80.1031 9.59963 80.2179 9.60704H81.782L81.7963 10.0533ZM80.7092 10.2417V10.4894C80.7053 10.6324 80.7399 10.7738 80.8096 10.8988C80.8406 10.9444 80.8829 10.981 80.9325 11.0051C80.9821 11.0291 81.0371 11.0398 81.0921 11.036C81.2722 11.036 81.3623 10.9316 81.3623 10.7248C81.3682 10.5937 81.3218 10.4656 81.2333 10.3686C81.1891 10.3239 81.136 10.289 81.0775 10.2661C81.0189 10.2432 80.9563 10.2328 80.8935 10.2355L80.7092 10.2417Z" fill="#36A9E1"/>
<path d="M81.7969 6.78003V7.41875H80.4273C80.2936 7.41002 80.1603 7.44138 80.0445 7.50882C80.0009 7.5425 79.9664 7.58656 79.9443 7.63699C79.9221 7.68741 79.9129 7.74259 79.9175 7.79748C79.9117 7.87203 79.9252 7.94682 79.9568 8.01461C79.9883 8.0824 80.0369 8.14088 80.0977 8.18439C80.2812 8.27912 80.4875 8.32093 80.6934 8.30517H81.7969V8.9439H79.4508V8.45667L79.7497 8.36864V8.33384C79.6373 8.2628 79.5483 8.16028 79.4938 8.03904C79.4328 7.90479 79.4028 7.75859 79.4057 7.61118C79.3985 7.49913 79.4144 7.38678 79.4525 7.28112C79.4905 7.17547 79.5499 7.07877 79.6269 6.99703C79.8058 6.84822 80.0356 6.77481 80.2676 6.79231L81.7969 6.78003Z" fill="#36A9E1"/>
<path d="M81.8396 5.37144C81.8439 5.49804 81.8168 5.62374 81.7607 5.73733C81.7046 5.85092 81.6213 5.94887 81.5182 6.02244C81.2457 6.17809 80.9374 6.25995 80.6236 6.25995C80.3098 6.25995 80.0014 6.17809 79.729 6.02244C79.6249 5.94679 79.541 5.84676 79.4846 5.73111C79.4282 5.61546 79.401 5.48774 79.4055 5.35915C79.3993 5.22638 79.4277 5.09427 79.488 4.97581C79.5483 4.85736 79.6384 4.75665 79.7494 4.68359V4.66311C79.5955 4.69219 79.4393 4.70794 79.2827 4.71019H78.5314V4.06738H81.7966V4.55256L81.4916 4.67744V4.70405C81.6044 4.77359 81.6962 4.87233 81.7575 4.98981C81.8188 5.1073 81.8471 5.23915 81.8396 5.37144ZM81.3278 5.14829C81.3336 5.08142 81.3238 5.01411 81.2993 4.95161C81.2748 4.88911 81.2362 4.83312 81.1866 4.78799C81.0418 4.6967 80.8722 4.65303 80.7014 4.66311H80.6318C80.4434 4.64801 80.2548 4.68858 80.0893 4.7798C80.0325 4.82425 79.9878 4.88219 79.9592 4.94834C79.9306 5.01449 79.919 5.08675 79.9255 5.15853C79.9237 5.225 79.9396 5.29076 79.9716 5.34904C80.0037 5.40733 80.0506 5.45604 80.1077 5.49017C80.2688 5.57948 80.4521 5.62069 80.6359 5.60891C80.8171 5.62147 80.998 5.58016 81.1558 5.49017C81.2104 5.45312 81.2547 5.40295 81.2847 5.34428C81.3148 5.28561 81.3296 5.22033 81.3278 5.15443V5.14829Z" fill="#36A9E1"/>
<path d="M13.1914 30.1424H14.215C14.5684 30.118 14.9218 30.1887 15.2386 30.3471C15.3433 30.4148 15.4278 30.5095 15.4833 30.6212C15.5388 30.7329 15.5632 30.8574 15.5539 30.9818C15.5613 31.154 15.5132 31.3241 15.4167 31.4669C15.3284 31.5881 15.1961 31.6697 15.0482 31.6942V31.7167C15.2258 31.7446 15.3865 31.8381 15.4986 31.9787C15.6153 32.1703 15.6606 32.397 15.6266 32.6187C15.5925 32.8404 15.4812 33.043 15.3123 33.1907C15.0541 33.3718 14.7428 33.4611 14.4279 33.4445H13.1996L13.1914 30.1424ZM13.8916 31.4485H14.301C14.4431 31.4592 14.5852 31.4286 14.7104 31.3605C14.7545 31.3268 14.7892 31.2824 14.8114 31.2315C14.8336 31.1807 14.8425 31.125 14.8373 31.0698C14.842 31.0159 14.8314 30.9619 14.8068 30.9137C14.7821 30.8656 14.7445 30.8253 14.6981 30.7975C14.5612 30.7342 14.4106 30.7061 14.26 30.7156H13.8936L13.8916 31.4485ZM13.8916 32.0033V32.8631H14.346C14.4963 32.8748 14.6462 32.8359 14.7718 32.7526C14.8195 32.7105 14.8567 32.6579 14.8806 32.5989C14.9044 32.5399 14.9141 32.4762 14.909 32.4128C14.909 32.1405 14.7043 32.0033 14.3235 32.0033H13.8916Z" fill="#36A9E1"/>
<path d="M18.53 32.1893C18.5502 32.5397 18.4344 32.8844 18.2065 33.1515C18.089 33.2703 17.9475 33.3628 17.7915 33.4228C17.6355 33.4828 17.4685 33.5089 17.3017 33.4995C17.0777 33.5041 16.8565 33.449 16.6609 33.3398C16.4762 33.234 16.3278 33.0749 16.2351 32.8833C16.1322 32.6666 16.081 32.4291 16.0857 32.1893C16.0642 31.8393 16.1803 31.4948 16.4091 31.2291C16.5273 31.1109 16.6693 31.0191 16.8256 30.9598C16.982 30.9005 17.1491 30.8751 17.316 30.8852C17.539 30.8809 17.7593 30.9353 17.9547 31.0429C18.1398 31.1473 18.2884 31.3059 18.3805 31.4973C18.4847 31.7128 18.5359 31.95 18.53 32.1893ZM16.7878 32.1893C16.7752 32.3854 16.8178 32.5811 16.9107 32.7543C16.9584 32.814 17.019 32.8623 17.0879 32.8954C17.1569 32.9286 17.2324 32.9458 17.3088 32.9458C17.3853 32.9458 17.4608 32.9286 17.5297 32.8954C17.5987 32.8623 17.6593 32.814 17.707 32.7543C17.7982 32.5798 17.8399 32.3837 17.8278 32.1872C17.8412 31.9924 17.7986 31.7977 17.705 31.6263C17.6566 31.5676 17.5958 31.5202 17.5269 31.4878C17.4581 31.4553 17.3829 31.4384 17.3068 31.4384C17.2307 31.4384 17.1555 31.4553 17.0867 31.4878C17.0178 31.5202 16.957 31.5676 16.9086 31.6263C16.817 31.7992 16.7752 31.9941 16.7878 32.1893Z" fill="#36A9E1"/>
<path d="M21.3533 33.4466H20.6655V31.4424H20.0329C20.0046 31.8664 19.9458 32.2879 19.8569 32.7035C19.8143 32.9233 19.7195 33.1297 19.5805 33.3053C19.5227 33.3669 19.4525 33.4153 19.3744 33.4474C19.2964 33.4796 19.2124 33.4946 19.1281 33.4916C18.9932 33.4965 18.8589 33.4714 18.735 33.4179V32.8693C18.8053 32.8978 18.8802 32.9131 18.9561 32.9143C19.0421 32.9143 19.1137 32.8529 19.1731 32.728C19.25 32.5305 19.3022 32.3242 19.3287 32.1139C19.3737 31.8273 19.4126 31.4301 19.4454 30.9265H21.3533V33.4466Z" fill="#36A9E1"/>
<path d="M22.4595 33.4467H21.7144L22.394 32.4497C22.2438 32.3927 22.115 32.2904 22.0255 32.1569C21.94 32.0218 21.8965 31.8644 21.9007 31.7045C21.8958 31.5943 21.9181 31.4845 21.9655 31.385C22.013 31.2854 22.0842 31.199 22.1729 31.1333C22.3928 30.9849 22.6554 30.913 22.9201 30.9286H24.0932V33.4507H23.4053V32.5111H23.0184L22.4595 33.4467ZM22.5742 31.7106C22.5724 31.7586 22.5828 31.8062 22.6042 31.8491C22.6257 31.8921 22.6576 31.9289 22.697 31.9563C22.7934 32.0197 22.9072 32.0512 23.0225 32.0464H23.4053V31.4097H22.9345C22.8396 31.4056 22.7463 31.4345 22.6704 31.4916C22.6387 31.5184 22.6136 31.552 22.5969 31.59C22.5803 31.6279 22.5725 31.6692 22.5742 31.7106Z" fill="#36A9E1"/>
<path d="M25.9824 30.2732C25.9824 30.0501 26.1073 29.9375 26.3571 29.9375C26.6068 29.9375 26.7317 30.0501 26.7317 30.2732C26.734 30.3191 26.7269 30.365 26.7107 30.4079C26.6945 30.4509 26.6696 30.4901 26.6375 30.523C26.559 30.5875 26.4584 30.6191 26.3571 30.611C26.1073 30.611 25.9824 30.4984 25.9824 30.2732ZM26.6989 33.4464H26.0111V30.9242H26.703L26.6989 33.4464Z" fill="#36A9E1"/>
<path d="M31.2836 33.4464H30.5937V30.7318H29.7749L29.738 31.0328C29.6438 31.8004 29.5619 32.3409 29.4903 32.65C29.453 32.8942 29.3448 33.1219 29.1791 33.3051C29.0258 33.4377 28.8266 33.5046 28.6243 33.4914C28.511 33.4929 28.3983 33.4757 28.2906 33.4402V32.8691C28.3696 32.897 28.4525 32.9122 28.5363 32.9141C28.5749 32.9153 28.6131 32.9056 28.6465 32.8861C28.6798 32.8665 28.7069 32.8379 28.7247 32.8036C28.7917 32.6755 28.8367 32.5371 28.8577 32.3941C28.8987 32.1894 28.9539 31.8721 29.0215 31.4217C29.089 30.9713 29.1484 30.5476 29.1976 30.1443H31.2775L31.2836 33.4464Z" fill="#36A9E1"/>
<path d="M35.54 32.1902C35.5618 32.5397 35.4498 32.8844 35.2268 33.1545C35.0043 33.365 34.713 33.4877 34.4069 33.4998C34.1008 33.5118 33.8008 33.4124 33.5624 33.22C33.3496 33.0036 33.2211 32.7182 33.2001 32.4154H32.7477V33.4554H32.0598V30.9251H32.7477V31.8954H33.2103C33.2194 31.7519 33.2568 31.6115 33.3201 31.4824C33.3835 31.3532 33.4717 31.2378 33.5797 31.1428C33.6877 31.0477 33.8133 30.9749 33.9495 30.9284C34.0856 30.8819 34.2295 30.8627 34.3731 30.8719C34.532 30.8646 34.6906 30.8922 34.8377 30.9527C34.9848 31.0131 35.1169 31.105 35.2247 31.2219C35.4498 31.4925 35.5627 31.839 35.54 32.1902ZM33.892 32.1902C33.8803 32.3856 33.9184 32.5807 34.0026 32.7573C34.0398 32.8201 34.0939 32.8712 34.1586 32.9048C34.2234 32.9385 34.2963 32.9533 34.369 32.9477C34.4409 32.9529 34.5127 32.9378 34.5764 32.9041C34.6401 32.8704 34.6931 32.8196 34.7293 32.7573C34.8135 32.5807 34.8516 32.3856 34.8399 32.1902C34.8526 31.9959 34.8137 31.8017 34.7273 31.6273C34.6862 31.5694 34.6319 31.5222 34.5689 31.4896C34.5058 31.457 34.4359 31.44 34.3649 31.44C34.294 31.44 34.224 31.457 34.161 31.4896C34.098 31.5222 34.0436 31.5694 34.0026 31.6273C33.9175 31.8021 33.8794 31.9962 33.892 32.1902Z" fill="#36A9E1"/>
<path d="M38.745 34.3495H38.1308V33.4467H36.4337V34.3495H35.8196V32.9431H36.0243C36.1867 32.68 36.3095 32.3944 36.3887 32.0955C36.493 31.7124 36.5616 31.3204 36.5934 30.9246H38.3745V32.9431H38.743L38.745 34.3495ZM37.6887 32.9431V31.4425H37.1728C37.1365 31.7101 37.0845 31.9753 37.0172 32.2368C36.9543 32.4817 36.8636 32.7187 36.747 32.9431H37.6887Z" fill="#36A9E1"/>
<path d="M39.5589 33.4467H38.8158L39.4934 32.4498C39.3438 32.3916 39.2154 32.2896 39.1249 32.157C39.0394 32.0219 38.9959 31.8644 39 31.7046C38.995 31.5941 39.0175 31.4841 39.0653 31.3845C39.1132 31.2848 39.185 31.1986 39.2744 31.1334C39.4941 30.9847 39.7568 30.9127 40.0216 30.9287H41.1926V33.4508H40.5068V32.5112H40.128L39.5589 33.4467ZM39.6736 31.7107C39.6719 31.7589 39.6824 31.8067 39.7043 31.8497C39.7261 31.8926 39.7585 31.9294 39.7984 31.9564C39.8939 32.02 40.0073 32.0515 40.1219 32.0464H40.5068V31.4098H40.0339C39.939 31.4056 39.8456 31.4346 39.7698 31.4917C39.7385 31.5187 39.7136 31.5524 39.6969 31.5903C39.6803 31.6282 39.6723 31.6693 39.6736 31.7107Z" fill="#36A9E1"/>
<path d="M42.6017 30.9246V31.8949H43.5618V30.9246H44.2496V33.4467H43.5618V32.4067H42.6017V33.4467H41.9138V30.9246H42.6017Z" fill="#36A9E1"/>
<path d="M44.9412 30.2732C44.9412 30.0501 45.0661 29.9375 45.3158 29.9375C45.5656 29.9375 45.6884 30.0501 45.6884 30.2732C45.6911 30.319 45.6844 30.3648 45.6685 30.4078C45.6526 30.4507 45.628 30.49 45.5963 30.523C45.5175 30.5871 45.4171 30.6186 45.3158 30.611C45.0661 30.611 44.9412 30.4984 44.9412 30.2732ZM45.6577 33.4464H44.9698V30.9242H45.6577V33.4464Z" fill="#36A9E1"/>
<path d="M47.4027 33.4916C46.6193 33.4916 46.2276 33.061 46.2276 32.1998C46.2026 31.8432 46.3171 31.4909 46.547 31.2172C46.6674 31.0992 46.8112 31.0079 46.9693 30.9494C47.1273 30.8908 47.296 30.8663 47.4641 30.8773C47.7353 30.8727 48.0038 30.9316 48.2482 31.0493L48.0435 31.5816C47.935 31.5386 47.8388 31.5017 47.7426 31.4731C47.6514 31.4465 47.557 31.4327 47.4621 31.4321C47.1045 31.4321 46.9257 31.686 46.9257 32.1937C46.9257 32.7014 47.1045 32.9484 47.4621 32.9348C47.5869 32.9356 47.7111 32.9177 47.8306 32.8815C47.95 32.8413 48.0635 32.7856 48.1684 32.7157V33.3033C48.065 33.3713 47.9508 33.4212 47.8306 33.4506C47.6899 33.4803 47.5464 33.4941 47.4027 33.4916Z" fill="#36A9E1"/>
<path d="M50.8383 30.9246V31.4425H50.0194V33.4467H49.3316V31.4425H48.5127V30.9246H50.8383Z" fill="#36A9E1"/>
<path d="M51.9963 31.899H52.4815C52.7798 31.8783 53.0778 31.9422 53.3413 32.0833C53.433 32.1442 53.507 32.228 53.5562 32.3264C53.6054 32.4248 53.628 32.5343 53.6218 32.6442C53.6218 33.1785 53.2492 33.4467 52.5081 33.4467H51.3085V30.9246H51.9963V31.899ZM52.9339 32.6524C52.9351 32.6109 52.9248 32.5698 52.9042 32.5337C52.8836 32.4976 52.8536 32.4679 52.8173 32.4477C52.7075 32.3982 52.5874 32.3757 52.4672 32.3822H51.9963V32.9779H52.4754C52.7804 32.9697 52.9339 32.8632 52.9339 32.6524Z" fill="#36A9E1"/>
<path d="M77.8421 33.1396H55.8411V33.3444H77.8421V33.1396Z" fill="#FFED00"/>
</svg>
