<svg width="11" height="11" viewBox="0 0 11 11" fill="none" xmlns="http://www.w3.org/2000/svg">
<g clip-path="url(#clip0_5156_9080)">
<path d="M9.20526 1.06337H8.05895V0.484425C8.05895 0.22449 7.85053 0 7.58421 0C7.31789 0 7.10947 0.212675 7.10947 0.484425V1.06337H3.87895V0.484425C3.87895 0.22449 3.67053 0 3.40421 0C3.13789 0 2.92947 0.212675 2.92947 0.484425V1.06337H1.79474C0.798947 1.06337 0 1.89044 0 2.89474V9.16864C0 10.1847 0.810526 11 1.79474 11H9.20526C10.2011 11 11 10.1729 11 9.16864V2.89474C11 1.89044 10.1895 1.06337 9.20526 1.06337ZM1.79474 2.02041H2.94105V2.59936C2.94105 2.85929 3.14947 3.08378 3.41579 3.08378C3.68211 3.08378 3.89053 2.87111 3.89053 2.59936V2.02041H7.13263V2.59936C7.13263 2.85929 7.34105 3.08378 7.60737 3.08378C7.87368 3.08378 8.08211 2.87111 8.08211 2.59936V2.02041H9.20526C9.68 2.02041 10.0621 2.41031 10.0621 2.89474V4.01719H0.937798V2.89474C0.937798 2.41031 1.3199 2.02041 1.79464 2.02041H1.79474ZM9.20526 10.043H1.79474C1.32 10.043 0.937895 9.65306 0.937895 9.16864V4.98604H10.0621V9.16864C10.0621 9.65306 9.68 10.043 9.20526 10.043Z" fill="black"/>
</g>
<defs>
<clipPath id="clip0_5156_9080">
<rect width="11" height="11" fill="white"/>
</clipPath>
</defs>
</svg>
