<svg width="100" height="89" viewBox="0 0 100 89" fill="none" xmlns="http://www.w3.org/2000/svg">
<path d="M85.3448 12.8365L54.3103 0L33.6207 2.56731L18.9655 15.4038L8.62069 29.0962L0 36.7981L8.62069 53.0577H21.5517L30.1724 59.9038L41.3793 70.1731V79.5865L44.8276 89L68.9655 85.5769L87.931 70.1731L100 48.7788L93.9655 29.0962L85.3448 12.8365Z" fill="white"/>
<g clip-path="url(#clip0_18_82)">
<path d="M60.7912 31.1144C59.9812 30.5128 58.8388 30.688 58.2402 31.5013L41.996 53.6155L36.577 48.2189C35.8596 47.5041 34.7071 47.5134 33.9951 48.2313C33.2869 48.95 33.2923 50.1113 34.0074 50.8238L40.9253 57.7127C41.2694 58.0538 41.7307 58.2438 42.2105 58.2438C42.2583 58.2438 42.3031 58.2415 42.3509 58.2376C42.8785 58.1973 43.363 57.9275 43.6792 57.4988L61.1777 33.6782C61.7763 32.8642 61.6027 31.716 60.7927 31.1144H60.7912Z" fill="black"/>
<path d="M50.6854 7C31.2037 7 15.1864 22.0896 13.5371 41.247L10.1831 37.4855C9.50347 36.7265 8.35177 36.6691 7.60814 37.3436C6.85757 38.0188 6.79354 39.1779 7.46543 39.9322L13.4877 46.687C13.8488 47.0917 14.3479 47.2971 14.847 47.2971C15.2812 47.2971 15.7163 47.1436 16.0634 46.8289L22.7862 40.7764C23.5368 40.1012 23.6008 38.9422 22.9289 38.1871C22.2516 37.4281 21.0976 37.3692 20.354 38.0452L17.2259 40.8617C19.0372 23.913 33.3474 10.6677 50.6854 10.6677C69.2476 10.6677 84.3516 25.8457 84.3516 44.5008C84.3516 63.1558 69.2483 78.333 50.6854 78.333C49.6779 78.333 48.861 79.154 48.861 80.1665C48.861 81.179 49.6779 82 50.6854 82C71.2594 82 88.0003 65.1785 88.0003 44.5008C88.0003 23.8231 71.2594 7 50.6854 7Z" fill="black"/>
</g>
<defs>
<clipPath id="clip0_18_82">
<rect width="81" height="75" fill="white" transform="translate(7 7)"/>
</clipPath>
</defs>
</svg>
