<svg width="104" height="80" viewBox="0 0 104 80" fill="none" xmlns="http://www.w3.org/2000/svg">
<path d="M61.8843 60L73.9174 80H84.2314L85.9504 71.3043L75.6364 54.7826L85.9504 46.9565L104 31.3043L92.8264 19.1304L71.3388 2.6087L43.8347 0L19.7686 10.4348L0 31.3043L16.3306 51.3043L40.3967 60H61.8843Z" fill="white"/>
<g clip-path="url(#clip0_18_80)">
<mask id="mask0_18_80" style="mask-type:luminance" maskUnits="userSpaceOnUse" x="8" y="6" width="86" height="50">
<path d="M93.9989 6H8V56H93.9989V6Z" fill="white"/>
</mask>
<g mask="url(#mask0_18_80)">
<path d="M87.9903 29.5238C85.382 26.7218 82.4164 23.9186 79.1572 21.3077C70.0089 13.9785 60.4351 9.62899 51 9.62899C41.5649 9.62899 31.9911 13.9785 22.8428 21.3077C19.5836 23.9186 16.6168 26.7229 14.0097 29.5238C13.5318 30.0374 13.0845 30.5306 12.6692 31C13.0845 31.4706 13.5318 31.9638 14.0097 32.4763C16.618 35.2783 19.5836 38.0826 22.8428 40.6935C31.9911 48.0215 41.5649 52.3722 51 52.3722C60.4351 52.3722 70.0089 48.0215 79.1572 40.6935C82.4164 38.0826 85.3832 35.2783 87.9903 32.4763C88.4682 31.9627 88.9155 31.4695 89.3308 31C88.9155 30.5306 88.4682 30.0374 87.9903 29.5238ZM51 55.9344C27.2525 55.9344 8 31 8 31C8 31 27.2513 6.06677 51 6.06677C74.7487 6.06677 94 31 94 31C94 31 74.7487 55.9344 51 55.9344ZM51 47.0294C59.9059 47.0294 67.1253 39.853 67.1253 31C67.1253 22.1471 59.9059 14.9706 51 14.9706C42.0941 14.9706 34.8747 22.1471 34.8747 31C34.8747 39.853 42.0941 47.0294 51 47.0294ZM51 43.4672C44.0742 43.4672 38.4582 37.8858 38.4582 31C38.4582 24.1143 44.0731 18.5328 51 18.5328C57.9269 18.5328 63.5418 24.1143 63.5418 31C63.5418 37.8858 57.9269 43.4672 51 43.4672Z" fill="black"/>
</g>
<path d="M48 38.7826L50.2051 29L60.1282 31.1739" stroke="black" stroke-width="3" stroke-linecap="round" stroke-linejoin="round"/>
</g>
<path d="M77 70L52 32" stroke="black" stroke-width="3" stroke-linecap="round" stroke-linejoin="round"/>
<defs>
<clipPath id="clip0_18_80">
<rect width="86" height="50" fill="white" transform="translate(8 6)"/>
</clipPath>
</defs>
</svg>
