<svg width="66" height="66" viewBox="0 0 66 66" fill="none" xmlns="http://www.w3.org/2000/svg">
<g clip-path="url(#clip0_2494_10391)">
<path d="M65.7547 26.1583C65.4885 25.3019 64.9676 24.5472 64.2609 23.9955L58.3 19.4192V7.69563C58.3 6.82051 57.9524 5.9806 57.3337 5.3618C56.7149 4.74301 55.8756 4.39538 55 4.39538H40.0092L35.6092 0.920219C34.8672 0.324524 33.9443 0 32.9928 0C32.0413 0 31.1184 0.324524 30.3765 0.920219L25.9897 4.39538H11C10.1249 4.39538 9.2851 4.74301 8.66635 5.3618C8.0476 5.9806 7.7 6.81996 7.7 7.69563V19.4192L1.7446 23.9911C1.0362 24.5434 0.5137 25.2986 0.2464 26.1561C0.2244 26.204 0.20625 26.2535 0.1925 26.3046C0.07095 26.7023 0.00605 27.1148 0 27.5301V61.5557C0.0022 62.8395 0.561 64.0595 1.5312 64.8999C1.59005 64.9615 1.65495 65.016 1.7259 65.0627C2.4871 65.6661 3.4287 65.9961 4.4 66H61.6C62.5564 65.9961 63.4848 65.676 64.24 65.0891C64.3593 65.0226 64.4655 64.934 64.5524 64.8284C65.4726 63.989 65.9983 62.8015 66 61.5557V27.5301C65.9939 27.1148 65.929 26.7023 65.8075 26.3046C65.7937 26.2546 65.7762 26.2056 65.7547 26.1583ZM63.8 61.5557C63.7983 61.9412 63.6982 62.3202 63.5085 62.6557L39.1919 46.3745L63.8 28.5532V61.5557ZM2.2 61.5557V28.5532L26.8081 46.3745L2.4915 62.6513C2.3023 62.3169 2.2022 61.9396 2.2 61.5557ZM32.395 45.281C32.5732 45.1633 32.7822 45.1001 32.9961 45.1001C33.2101 45.1001 33.4191 45.1628 33.5973 45.281L61.27 63.7998H4.73L32.395 45.281ZM62.9255 25.7447C63.0822 25.8673 63.2214 26.0109 63.3391 26.1715L58.3 29.8194V22.1936L62.9255 25.7447ZM31.7493 2.63525C32.1008 2.34648 32.5418 2.18916 32.9967 2.18916C33.4515 2.18916 33.8921 2.34703 34.2441 2.63525L36.4617 4.39538H29.5317L31.7493 2.63525ZM11 6.59554H55C55.2915 6.59554 55.5715 6.7116 55.7777 6.91787C55.984 7.12413 56.1 7.40411 56.1 7.69563V31.4134L37.2427 45.0676L34.8139 43.4417C34.2743 43.088 33.643 42.9005 32.9978 42.9016C32.3527 42.9027 31.7223 43.0919 31.1839 43.4472L28.7639 45.0676L9.9 31.4134V7.69563C9.9 7.40411 10.016 7.12413 10.2223 6.91787C10.4285 6.7116 10.7085 6.59554 11 6.59554ZM3.08 25.737L7.7 22.1936V29.8194L2.662 26.177C2.7808 26.012 2.92105 25.8635 3.08 25.737Z" fill="#E5ECE8"/>
<path d="M20.0103 26.2035C19.5631 26.8498 19.3629 27.6358 19.446 28.4175C19.529 29.1991 19.8898 29.9251 20.4635 30.4631C21.0366 31.001 21.7835 31.3156 22.5689 31.3486C22.6002 32.1627 22.9363 32.9355 23.5116 33.5125C24.0863 34.0895 24.858 34.4289 25.672 34.463C25.7132 35.277 26.0509 36.0476 26.6224 36.629C27.2021 37.2055 27.9759 37.5443 28.7927 37.5784C28.8251 38.3644 29.1408 39.113 29.6809 39.685C30.221 40.2571 30.9498 40.6152 31.733 40.6933C32.5156 40.7708 33.3005 40.5635 33.9429 40.1091L34.67 40.8297C35.2832 41.4573 36.1242 41.811 37.002 41.8099C37.7643 41.8038 38.5018 41.537 39.0909 41.0536C39.6805 40.5701 40.0858 39.899 40.2404 39.1521C40.3658 39.1719 40.4928 39.184 40.6199 39.1884C41.463 39.1906 42.2743 38.8682 42.887 38.289C43.4991 37.7099 43.8654 36.9172 43.91 36.0751C44.7196 36.0322 45.4852 35.6918 46.0588 35.1186C46.6325 34.5455 46.9746 33.7804 47.0186 32.9707C47.8716 32.9245 48.6735 32.5494 49.2554 31.924C49.8373 31.2986 50.1541 30.4719 50.1393 29.6176C50.1244 28.7634 49.779 27.9483 49.1751 27.3438L47.6197 25.7883L49.3137 24.0886C50.1376 23.2636 50.6007 22.1453 50.6007 20.9792C50.6007 19.8132 50.1382 18.6949 49.3137 17.8699L41.5367 10.0923C40.7117 9.26832 39.5936 8.80573 38.4276 8.80573C37.2616 8.80573 36.1434 9.26832 35.3184 10.0923L33.6013 11.8007L31.7918 10.0879C30.9668 9.26337 29.8481 8.80078 28.6821 8.80078C27.5161 8.80078 26.3974 9.26337 25.5724 10.0879L17.7954 17.8655C16.9699 18.6944 16.5079 19.8181 16.5117 20.988C16.515 22.158 16.9831 23.2784 17.813 24.1035L20.0103 26.2046V26.2035ZM21.6284 28.0737C21.6284 27.7783 21.7477 27.4961 21.9584 27.2893L23.5204 25.7382C23.7217 25.5171 24.0055 25.3878 24.3047 25.3812C24.6039 25.3746 24.8932 25.4912 25.1038 25.7035C25.315 25.9159 25.43 26.2052 25.4217 26.505C25.4135 26.8042 25.2826 27.0875 25.0604 27.2877L23.5127 28.8476C23.3059 29.0528 23.027 29.1677 22.7361 29.1688C22.4451 29.1694 22.1652 29.055 21.9578 28.8509C21.7505 28.6468 21.6322 28.3691 21.6284 28.0781V28.0748V28.0737ZM24.7529 31.1759C24.7518 30.8877 24.8651 30.611 25.0675 30.4059L25.2006 30.2716L27.4006 28.0715C27.6058 27.863 27.8857 27.7448 28.1783 27.7431C28.4709 27.7409 28.752 27.8559 28.9599 28.0621C29.1672 28.2684 29.2844 28.5489 29.2849 28.8415C29.2816 29.1358 29.1634 29.4174 28.9549 29.6259L26.6229 31.9581C26.4167 32.1649 26.1362 32.2815 25.8441 32.2815C25.5521 32.2815 25.2716 32.1649 25.0653 31.9581C24.8602 31.7491 24.7474 31.4658 24.7529 31.1726V31.1759ZM27.8549 34.2891C27.8582 33.9987 27.977 33.7215 28.1849 33.5191L31.2968 30.407C31.5009 30.2029 31.7781 30.0885 32.0668 30.089C32.3627 30.089 32.646 30.2078 32.8533 30.4191C33.0607 30.6182 33.1756 30.8948 33.1712 31.1825C33.1762 31.4806 33.0563 31.7667 32.8412 31.9735L29.7458 35.0801C29.5379 35.2864 29.2569 35.4019 28.9643 35.4013C28.6717 35.4002 28.3912 35.2836 28.1844 35.0768C27.9776 34.8694 27.8615 34.5889 27.8615 34.2957L27.8549 34.2891ZM31.2946 38.1691C31.0911 37.9634 30.9767 37.6851 30.9767 37.3958C30.9767 37.1065 31.0906 36.8281 31.2946 36.6224L33.6442 34.2737C33.8494 34.0713 34.126 33.9586 34.4142 33.9591C34.6925 33.9591 34.9604 34.0653 35.1622 34.2567C35.3646 34.4481 35.4851 34.7094 35.4999 34.9877C35.5005 35.0306 35.5038 35.0741 35.5098 35.1164C35.4955 35.3876 35.38 35.6439 35.1864 35.8348L33.2064 37.8061V37.8116L32.8445 38.1713C32.6394 38.3787 32.3605 38.4948 32.069 38.4942C31.7775 38.4942 31.4987 38.3765 31.2946 38.1691ZM37.7747 39.2692C37.5723 39.4777 37.2935 39.5948 37.0031 39.5932C36.7121 39.5915 36.4349 39.4722 36.2347 39.2615L35.5461 38.5795L36.7429 37.3991C36.8628 37.2753 36.9734 37.1428 37.0729 37.0019L37.7901 37.7236C38.0002 37.9288 38.1179 38.2104 38.1157 38.5041C38.1135 38.7978 37.9931 39.0778 37.7802 39.2802L37.7747 39.2692ZM36.8716 11.6351C37.2841 11.2232 37.8429 10.9921 38.4259 10.9921C39.0089 10.9921 39.5677 11.2232 39.9802 11.6351L47.7572 19.4127C48.1686 19.8253 48.4002 20.3841 48.4002 20.9671C48.4002 21.5502 48.1686 22.109 47.7572 22.5216L46.0709 24.2146L39.0683 17.2236C39.3466 16.9458 39.4555 16.5404 39.3543 16.1603C39.2531 15.7803 38.9567 15.4832 38.5766 15.3809C38.1966 15.2786 37.7912 15.387 37.5129 15.6647L32.4529 20.7251C32.1444 21.0425 31.7214 21.2229 31.2792 21.2251C30.837 21.2279 30.4119 21.0524 30.0995 20.7383C29.7876 20.4248 29.6144 19.9985 29.6199 19.5557C29.6248 19.1135 29.8074 18.6916 30.1264 18.3847L36.8716 11.6346V11.6351ZM19.3486 19.4127L27.1256 11.6351C27.5431 11.2221 28.1079 10.9921 28.6953 10.996C29.2827 10.9998 29.8443 11.2375 30.2562 11.656L32.0459 13.3491L28.5721 16.8275C27.6267 17.805 27.267 19.2081 27.6256 20.5194C27.9842 21.8307 29.0072 22.856 30.3184 23.2168C31.629 23.5771 33.0332 23.2196 34.0116 22.2757L37.5129 18.7785L47.6252 28.8916C47.8293 29.0984 47.9437 29.3778 47.9426 29.6682C47.9415 29.9592 47.826 30.237 47.6203 30.4427C47.4129 30.644 47.1357 30.7568 46.847 30.7568C46.5582 30.7568 46.2805 30.644 46.0737 30.4427L46.0605 30.4339L42.1808 26.555C41.9014 26.2849 41.5004 26.1826 41.1259 26.2855C40.7513 26.3884 40.4587 26.681 40.3559 27.0556C40.253 27.4301 40.3559 27.8311 40.6254 28.1105L44.5117 31.996C44.7317 32.1995 44.8598 32.4834 44.8653 32.7831C44.8714 33.0829 44.7542 33.3717 44.5419 33.5834C44.3296 33.7952 44.0403 33.9113 43.7406 33.9047C43.4408 33.8981 43.1576 33.7694 42.9546 33.5488L39.3521 29.946C39.0727 29.6759 38.6718 29.5736 38.2972 29.6765C37.9227 29.7794 37.6301 30.072 37.5272 30.4466C37.4244 30.8211 37.5272 31.2221 37.7967 31.5015L41.3992 35.1043C41.6775 35.3826 41.7864 35.788 41.6841 36.1681C41.5824 36.5482 41.2854 36.8452 40.9053 36.9469C40.5253 37.0487 40.1199 36.9403 39.8416 36.662L39.3378 36.1582L37.6383 34.4498C37.5173 33.7974 37.2044 33.1957 36.7396 32.7226C36.3348 32.326 35.8332 32.0417 35.2843 31.8987C35.3382 31.661 35.3663 31.4174 35.3679 31.1737C35.3729 30.2975 35.0225 29.4576 34.3966 28.8448C33.5997 28.0484 32.4507 27.7162 31.3518 27.9648C31.1324 27.1463 30.6033 26.445 29.8767 26.0099C29.1496 25.5743 28.2817 25.439 27.4567 25.6315C27.256 24.8867 26.7989 24.2371 26.1664 23.796C25.5339 23.3549 24.7661 23.1508 23.9978 23.2201C23.23 23.2889 22.5106 23.6266 21.9666 24.1728L21.5266 24.6128L19.3475 22.5304C18.9356 22.1178 18.704 21.5584 18.7046 20.9754C18.7051 20.3924 18.9367 19.833 19.3486 19.4204V19.4127Z" fill="#E5ECE8"/>
</g>
<defs>
<clipPath id="clip0_2494_10391">
<rect width="66" height="66" fill="white"/>
</clipPath>
</defs>
</svg>
