<svg width="23" height="23" viewBox="0 0 23 23" fill="none" xmlns="http://www.w3.org/2000/svg">
<g clip-path="url(#clip0_5156_9308)">
<path d="M11.5 23C17.8513 23 23 17.8513 23 11.5C23 5.14873 17.8513 0 11.5 0C5.14873 0 0 5.14873 0 11.5C0 17.8513 5.14873 23 11.5 23Z" fill="#404FD0"/>
<path d="M12.3893 9.93093C12.5784 9.71797 12.7335 9.5033 12.9277 9.32101C13.524 8.75879 14.2293 8.47597 15.0539 8.48279C15.5071 8.48619 15.9535 8.51856 16.3896 8.64464C17.388 8.93256 17.9672 9.62086 18.2449 10.5954C18.4528 11.3263 18.4903 12.0776 18.492 12.8306C18.4954 14.4185 18.4869 16.008 18.492 17.5959C18.492 17.7441 18.4511 17.7833 18.3046 17.7833C17.4868 17.7765 16.6673 17.7765 15.8495 17.7833C15.7047 17.7833 15.6741 17.7407 15.6741 17.6044C15.6792 16.0932 15.6792 14.582 15.6741 13.0692C15.6741 12.6909 15.6485 12.311 15.5429 11.943C15.3469 11.2649 14.8614 10.9191 14.1509 10.9566C13.1798 11.0077 12.6755 11.4881 12.5529 12.4746C12.5239 12.7097 12.5086 12.9465 12.5103 13.1833C12.5103 14.6536 12.5103 16.1239 12.5137 17.5942C12.5137 17.7407 12.4779 17.7833 12.328 17.7833C11.5034 17.7765 10.6788 17.7765 9.85421 17.7833C9.72132 17.7833 9.68384 17.7492 9.68384 17.6146C9.68725 14.7047 9.68725 11.7931 9.68384 8.88316C9.68384 8.73834 9.73154 8.70597 9.86784 8.70597C10.6498 8.71108 11.4335 8.71279 12.2155 8.70597C12.3604 8.70597 12.3961 8.75197 12.3944 8.88827C12.3859 9.23582 12.391 9.58338 12.391 9.93264L12.3893 9.93093Z" fill="white"/>
<path d="M7.90518 13.2566C7.90518 14.6963 7.90348 16.1359 7.90859 17.5755C7.90859 17.7357 7.8694 17.7834 7.70414 17.7817C6.88637 17.7732 6.06859 17.7749 5.24911 17.7817C5.11792 17.7817 5.07874 17.7493 5.07874 17.6147C5.08214 14.6997 5.08214 11.7846 5.07874 8.8679C5.07874 8.74694 5.1077 8.70435 5.23548 8.70435C6.06518 8.70946 6.89488 8.71116 7.72459 8.70435C7.88474 8.70435 7.90518 8.76398 7.90518 8.90198C7.90177 10.3535 7.90348 11.8051 7.90348 13.2566H7.90518Z" fill="white"/>
<path d="M8.13178 5.81649C8.13178 6.72116 7.39919 7.45716 6.49623 7.45716C5.60519 7.45716 4.86578 6.72116 4.86238 5.83012C4.85897 4.93056 5.59838 4.18945 6.49964 4.18945C7.39408 4.18945 8.13008 4.92375 8.13178 5.81479V5.81649Z" fill="white"/>
</g>
<defs>
<clipPath id="clip0_5156_9308">
<rect width="23" height="23" fill="white"/>
</clipPath>
</defs>
</svg>
