<svg width="11" height="11" viewBox="0 0 11 11" fill="none" xmlns="http://www.w3.org/2000/svg">
<g clip-path="url(#clip0_5156_9078)">
<path d="M7.74807 5.88369C8.25873 5.4286 8.61886 4.82962 8.78051 4.16618C8.94217 3.50275 8.89768 2.80607 8.65332 2.16822C8.4088 1.53038 7.97568 0.981655 7.41129 0.594455C6.8469 0.207256 6.17772 0 5.4924 0C4.80709 0 4.13806 0.207256 3.57367 0.594455C3.00928 0.981655 2.57616 1.53038 2.33164 2.16822C2.08712 2.80607 2.04279 3.50275 2.20445 4.16618C2.36611 4.82962 2.72607 5.4286 3.23689 5.88369C2.29201 6.2133 1.47308 6.82711 0.89334 7.64021C0.313444 8.45331 0.00140979 9.42576 0 10.4232C0 10.6293 0.110434 10.8197 0.289478 10.9227C0.468678 11.0259 0.689233 11.0259 0.868433 10.9227C1.04748 10.8197 1.15791 10.6293 1.15791 10.4232C1.15885 9.45198 1.54654 8.52089 2.23593 7.83404C2.92517 7.14735 3.85986 6.76109 4.83466 6.76H6.1655C7.1403 6.76093 8.07483 7.1472 8.76422 7.83404C9.45346 8.52089 9.84115 9.45198 9.84225 10.4232C9.84225 10.6293 9.95252 10.8197 10.1317 10.9227C10.3108 11.0259 10.5315 11.0259 10.7107 10.9227C10.8897 10.8197 11.0002 10.6293 11.0002 10.4232C10.9977 9.42389 10.6834 8.45004 10.1007 7.63678C9.51799 6.82336 8.69593 6.21065 7.74823 5.88353L7.74807 5.88369ZM5.4924 1.18298C6.07966 1.18298 6.64295 1.41536 7.05821 1.82909C7.47348 2.24282 7.70672 2.80388 7.70672 3.38913C7.70672 3.97438 7.47332 4.53543 7.05821 4.94916C6.64295 5.3629 6.07966 5.59528 5.4924 5.59528C4.90515 5.59528 4.34185 5.36274 3.92659 4.94916C3.51133 4.53543 3.27809 3.97438 3.27809 3.38913C3.27809 2.80388 3.51133 2.24282 3.92659 1.82909C4.34185 1.41536 4.90499 1.18298 5.4924 1.18298Z" fill="black"/>
</g>
<defs>
<clipPath id="clip0_5156_9078">
<rect width="11" height="11" fill="white"/>
</clipPath>
</defs>
</svg>
