<svg width="45" height="90" viewBox="0 0 45 90" fill="none" xmlns="http://www.w3.org/2000/svg">
<circle cx="45" cy="45" r="45" fill="#E5ECE8"/>
<path d="M32.6828 44.2533C33.1057 44.68 33.1057 45.32 32.6828 45.7467L25.8092 52.68C25.3862 53.1067 24.7517 53.1067 24.3287 52.68C23.9057 52.2533 23.9057 51.6133 24.3287 51.1867L29.4046 46.0667L11.0575 46.0667C10.4759 46.0667 10 45.5867 10 45C10 44.4133 10.4759 43.9333 11.0575 43.9333L29.4046 43.9333L24.3287 38.8133C23.9057 38.3867 23.9057 37.7467 24.3287 37.32C24.7517 36.8933 25.3862 36.8933 25.8092 37.32L32.6828 44.2533Z" fill="#404FD0"/>
</svg>
