<svg width="56" height="56" viewBox="0 0 56 56" fill="none" xmlns="http://www.w3.org/2000/svg">
<path d="M40.8917 27.6936L33.924 20.1382C33.7551 19.9589 33.467 19.9571 33.3045 20.1171C33.1397 20.28 33.1276 20.5781 33.2837 20.7493L39.5576 27.5548L14.4357 27.5548C14.1954 27.5548 14 27.7536 14 27.9994C14 28.2453 14.1948 28.444 14.4357 28.444L39.5582 28.4441L33.2843 35.2496C33.1276 35.4207 33.1374 35.7219 33.3051 35.8818C33.4727 36.0418 33.7419 36.0459 33.9245 35.8606L40.8922 28.3053C41.0582 28.0971 41.0144 27.8424 40.8922 27.6936L40.8917 27.6936Z" fill="#404FD0"/>
<circle cx="28" cy="28" r="27.5" stroke="#404FD0"/>
</svg>
