<svg width="103" height="102" viewBox="0 0 103 102" fill="none" xmlns="http://www.w3.org/2000/svg">
<path d="M38.625 18L14.5917 32.5714L4.29167 45.4286L0 66.8571L6.86667 92.5714L28.325 102H55.7917L81.5417 88.2857L84.1167 69.4286V45.4286L94.4167 29.1429L103 26.5714V14.5714L89.2667 0L74.675 14.5714V32.5714L55.7917 18H38.625Z" fill="white"/>
<path d="M80.5 61.5C80.5 81.4013 64.5872 97.5 45 97.5C25.4128 97.5 9.5 81.4013 9.5 61.5C9.5 41.5987 25.4128 25.5 45 25.5C64.5872 25.5 80.5 41.5987 80.5 61.5Z" stroke="black" stroke-width="3"/>
<g clip-path="url(#clip0_18_83)">
<path d="M96.4592 19.1545C96.1385 19.4495 95.7156 19.6023 95.284 19.5789C94.8523 19.5555 94.448 19.3581 94.1598 19.0299L89.577 13.8053C87.7244 38.0247 63.7868 56.0337 47.0642 60.9333C46.9194 60.9797 46.7686 61.0018 46.6174 60.9996C46.0921 60.9969 45.6007 60.7359 45.2982 60.2987C44.9953 59.8615 44.9182 59.3025 45.0915 58.7973C45.2649 58.2921 45.6666 57.9035 46.1706 57.7538C61.8531 53.1832 84.2549 36.4738 86.2783 14.1259L81.9555 19.0277C81.5663 19.4716 80.9748 19.6698 80.4032 19.5484C79.8316 19.4269 79.367 19.0043 79.1845 18.4391C79.0021 17.8738 79.1291 17.2525 79.5182 16.8087L86.8304 8.52904C87.1493 8.19077 87.5892 8 88.049 8C88.5088 8 88.9491 8.19077 89.2676 8.52904L96.5806 16.8091C96.8701 17.1359 97.02 17.5669 96.997 18.0068C96.9741 18.4466 96.7804 18.8586 96.4584 19.1527V19.1549L96.4592 19.1545Z" fill="black"/>
</g>
<defs>
<clipPath id="clip0_18_83">
<rect width="52" height="53" fill="white" transform="translate(45 8)"/>
</clipPath>
</defs>
</svg>
