<svg width="9" height="11" viewBox="0 0 9 11" fill="none" xmlns="http://www.w3.org/2000/svg">
<g clip-path="url(#clip0_5156_8979)">
<mask id="path-1-outside-1_5156_8979" maskUnits="userSpaceOnUse" x="-1" y="-1" width="11" height="13" fill="black">
<rect fill="white" x="-1" y="-1" width="11" height="13"/>
<path fill-rule="evenodd" clip-rule="evenodd" d="M0.72 10.6179V0.658128L4.68 3.05977V10.6177L0.72 10.6179ZM0.36 10.6179V0L5.04 2.83826V4.25739L8.64 6.44067V10.6179H9V11H0V10.6179H0.36ZM8.28 10.6179V6.66237L5.04 4.69745V10.6179H8.28ZM1.08 2.5943H1.8V2.97638H1.08V2.5943ZM1.08 3.74054H1.8V4.12261H1.08V3.74054ZM1.08 4.88677H1.8V5.26884H1.08V4.88677ZM2.16 3.74054H3.24V4.12261H2.16V3.74054ZM2.16 4.88677H3.24V5.26884H2.16V4.88677ZM3.6 3.74054H4.32V4.12261H3.6V3.74054ZM3.6 4.88677H4.32V5.26884H3.6V4.88677ZM1.08 6.033H1.8V6.41507H1.08V6.033ZM2.16 6.033H3.24V6.41507H2.16V6.033ZM3.6 6.033H4.32V6.41507H3.6V6.033ZM1.08 7.17923H1.8V7.56131H1.08V7.17923ZM2.16 7.17923H3.24V7.56131H2.16V7.17923ZM3.6 7.17923H4.32V7.56131H3.6V7.17923ZM1.08 8.32546H1.8V8.70754H1.08V8.32546ZM2.16 8.32546H3.24V8.70754H2.16V8.32546ZM3.6 8.32546H4.32V8.70754H3.6V8.32546ZM1.08 9.47169H1.8V9.85377H1.08V9.47169ZM2.16 9.47169H3.24V9.85377H2.16V9.47169ZM3.6 9.47169H4.32V9.85377H3.6V9.47169ZM5.4 9.47169H6.48V9.85377H5.4V9.47169ZM6.84 9.47169H7.92V9.85377H6.84V9.47169ZM5.4 8.32546H6.48V8.70754H5.4V8.32546ZM6.84 8.32546H7.92V8.70754H6.84V8.32546ZM5.4 7.17923H6.48V7.56131H5.4V7.17923ZM6.84 7.17923H7.92V7.56131H6.84V7.17923ZM5.4 6.033H6.48V6.41507H5.4V6.033Z"/>
</mask>
<path fill-rule="evenodd" clip-rule="evenodd" d="M0.72 10.6179V0.658128L4.68 3.05977V10.6177L0.72 10.6179ZM0.36 10.6179V0L5.04 2.83826V4.25739L8.64 6.44067V10.6179H9V11H0V10.6179H0.36ZM8.28 10.6179V6.66237L5.04 4.69745V10.6179H8.28ZM1.08 2.5943H1.8V2.97638H1.08V2.5943ZM1.08 3.74054H1.8V4.12261H1.08V3.74054ZM1.08 4.88677H1.8V5.26884H1.08V4.88677ZM2.16 3.74054H3.24V4.12261H2.16V3.74054ZM2.16 4.88677H3.24V5.26884H2.16V4.88677ZM3.6 3.74054H4.32V4.12261H3.6V3.74054ZM3.6 4.88677H4.32V5.26884H3.6V4.88677ZM1.08 6.033H1.8V6.41507H1.08V6.033ZM2.16 6.033H3.24V6.41507H2.16V6.033ZM3.6 6.033H4.32V6.41507H3.6V6.033ZM1.08 7.17923H1.8V7.56131H1.08V7.17923ZM2.16 7.17923H3.24V7.56131H2.16V7.17923ZM3.6 7.17923H4.32V7.56131H3.6V7.17923ZM1.08 8.32546H1.8V8.70754H1.08V8.32546ZM2.16 8.32546H3.24V8.70754H2.16V8.32546ZM3.6 8.32546H4.32V8.70754H3.6V8.32546ZM1.08 9.47169H1.8V9.85377H1.08V9.47169ZM2.16 9.47169H3.24V9.85377H2.16V9.47169ZM3.6 9.47169H4.32V9.85377H3.6V9.47169ZM5.4 9.47169H6.48V9.85377H5.4V9.47169ZM6.84 9.47169H7.92V9.85377H6.84V9.47169ZM5.4 8.32546H6.48V8.70754H5.4V8.32546ZM6.84 8.32546H7.92V8.70754H6.84V8.32546ZM5.4 7.17923H6.48V7.56131H5.4V7.17923ZM6.84 7.17923H7.92V7.56131H6.84V7.17923ZM5.4 6.033H6.48V6.41507H5.4V6.033Z" fill="black"/>
<path fill-rule="evenodd" clip-rule="evenodd" d="M0.72 10.6179V0.658128L4.68 3.05977V10.6177L0.72 10.6179ZM0.36 10.6179V0L5.04 2.83826V4.25739L8.64 6.44067V10.6179H9V11H0V10.6179H0.36ZM8.28 10.6179V6.66237L5.04 4.69745V10.6179H8.28ZM1.08 2.5943H1.8V2.97638H1.08V2.5943ZM1.08 3.74054H1.8V4.12261H1.08V3.74054ZM1.08 4.88677H1.8V5.26884H1.08V4.88677ZM2.16 3.74054H3.24V4.12261H2.16V3.74054ZM2.16 4.88677H3.24V5.26884H2.16V4.88677ZM3.6 3.74054H4.32V4.12261H3.6V3.74054ZM3.6 4.88677H4.32V5.26884H3.6V4.88677ZM1.08 6.033H1.8V6.41507H1.08V6.033ZM2.16 6.033H3.24V6.41507H2.16V6.033ZM3.6 6.033H4.32V6.41507H3.6V6.033ZM1.08 7.17923H1.8V7.56131H1.08V7.17923ZM2.16 7.17923H3.24V7.56131H2.16V7.17923ZM3.6 7.17923H4.32V7.56131H3.6V7.17923ZM1.08 8.32546H1.8V8.70754H1.08V8.32546ZM2.16 8.32546H3.24V8.70754H2.16V8.32546ZM3.6 8.32546H4.32V8.70754H3.6V8.32546ZM1.08 9.47169H1.8V9.85377H1.08V9.47169ZM2.16 9.47169H3.24V9.85377H2.16V9.47169ZM3.6 9.47169H4.32V9.85377H3.6V9.47169ZM5.4 9.47169H6.48V9.85377H5.4V9.47169ZM6.84 9.47169H7.92V9.85377H6.84V9.47169ZM5.4 8.32546H6.48V8.70754H5.4V8.32546ZM6.84 8.32546H7.92V8.70754H6.84V8.32546ZM5.4 7.17923H6.48V7.56131H5.4V7.17923ZM6.84 7.17923H7.92V7.56131H6.84V7.17923ZM5.4 6.033H6.48V6.41507H5.4V6.033Z" stroke="black" stroke-width="0.2" mask="url(#path-1-outside-1_5156_8979)"/>
</g>
<defs>
<clipPath id="clip0_5156_8979">
<rect width="9" height="11" fill="white"/>
</clipPath>
</defs>
</svg>
