<svg width="23" height="23" viewBox="0 0 23 23" fill="none" xmlns="http://www.w3.org/2000/svg">
<path d="M23 11.5703C23 5.18006 17.8514 0 11.5 0C5.14859 0 0 5.18006 0 11.5703C0 17.3451 4.20474 22.1327 9.70259 23V14.9145H6.78244V11.5703H9.70259V9.02139C9.70259 6.12111 11.4199 4.52012 14.047 4.52012C15.3061 4.52012 16.6213 4.74639 16.6213 4.74639V7.59353H15.1715C13.7438 7.59353 13.2974 8.48487 13.2974 9.40021V11.5703H16.4867L15.9773 14.9145H13.2974V23C18.7953 22.1327 23 17.3451 23 11.5703Z" fill="#404FD0"/>
<path d="M16.3455 14.6063L16.8632 11.1939H13.6216V8.97956C13.6216 8.04557 14.0736 7.13606 15.5264 7.13606H17V4.23088C17 4.23088 15.6632 4 14.3836 4C11.7134 4 9.96797 5.63362 9.96797 8.59302V11.1939H7V14.6063H9.96797V22.8566C10.5636 22.951 11.1732 23 11.7948 23C12.4164 23 13.026 22.951 13.6216 22.8566V14.6063H16.3455Z" fill="white"/>
</svg>
