<svg width="26" height="18" viewBox="0 0 26 18" fill="none" xmlns="http://www.w3.org/2000/svg">
<path d="M25.6414 9.84C26.1195 9.36 26.1195 8.64 25.6414 8.16L17.8713 0.36C17.3931 -0.12 16.6759 -0.12 16.1977 0.36C15.7195 0.84 15.7195 1.56 16.1977 2.04L21.9356 7.8L1.1954 7.8C0.537932 7.8 9.94535e-08 8.34 1.07324e-07 9C1.15194e-07 9.66 0.537932 10.2 1.1954 10.2L21.9356 10.2L16.1977 15.96C15.7195 16.44 15.7195 17.16 16.1977 17.64C16.6759 18.12 17.3931 18.12 17.8713 17.64L25.6414 9.84Z" fill="#404FD0"/>
</svg>
