<svg width="21" height="21" viewBox="0 0 21 21" fill="none" xmlns="http://www.w3.org/2000/svg">
<path d="M10.5 0C4.71027 0 0 4.71027 0 10.5C0 16.2897 4.71027 21 10.5 21C16.2897 21 21 16.2897 21 10.5C21 4.71027 16.2897 0 10.5 0ZM11.5798 16.3651H9.24038V14.1817H11.5798V16.3651ZM13.0994 10.4436C12.4089 10.9575 11.6711 11.375 11.5269 12.3211V12.9316H9.36049V12.2096C9.4565 10.8129 10.1144 10.1875 10.7563 9.68984C11.3821 9.19276 11.9277 8.82382 11.9277 7.95686C11.9277 6.97781 11.4146 6.51249 10.5643 6.51249C9.40907 6.51249 8.92768 7.45921 8.91104 8.59872H6.55227C6.60066 6.30402 8.10891 4.63511 10.4516 4.63511C13.4846 4.63511 14.4479 6.49661 14.4479 7.73156C14.4479 9.28858 13.7898 9.91437 13.0996 10.4434L13.0994 10.4436Z" fill="#FF8A00"/>
</svg>
