<svg width="123" height="107" viewBox="0 0 123 107" fill="none" xmlns="http://www.w3.org/2000/svg">
<path d="M11.1818 83.5122L1.72028 86.1219L0 100.911L8.6014 105.26L20.6434 100.041L30.965 105.26L45.5874 100.911L57.6294 107L74.8322 100.911L83.4336 107L100.636 100.911L110.098 105.26L123 100.911L119.559 87.8618L111.818 80.0325L110.098 60.8943L100.636 59.1545L64.5105 0H61.0699L20.6434 59.1545L11.1818 60.8943V83.5122Z" fill="white"/>
<path d="M19 71L61.6067 9L102 71" stroke="black" stroke-width="3" stroke-linecap="round" stroke-linejoin="round"/>
<path d="M27.7406 72.2761L17.6465 73.1409L16.7817 63.0469" stroke="black" stroke-width="3" stroke-linecap="round" stroke-linejoin="round"/>
<path d="M103.38 61.8418L103.817 71.9633L93.695 72.4002" stroke="black" stroke-width="3" stroke-linecap="round" stroke-linejoin="round"/>
<path d="M88.6596 97C83.4301 97 78.538 94.6308 75.1641 90.5692C71.7903 94.6308 66.8982 97 61.6687 97C56.4392 97 51.5471 94.6308 48.1733 90.5692C44.7994 94.6308 39.9073 97 34.6778 97C29.4483 97 24.5562 94.6308 21.1824 90.5692C17.8085 94.6308 12.9164 97 7.68693 97C6.67477 97 6 96.3231 6 95.3077C6 94.2923 6.67477 93.6154 7.68693 93.6154C12.579 93.6154 17.1337 91.0769 19.6641 86.8462C20.0015 86.3385 20.5076 86 21.1824 86C21.6884 86 22.3632 86.3385 22.7006 86.8462C25.231 91.0769 29.7857 93.6154 34.6778 93.6154C39.5699 93.6154 44.1246 91.0769 46.655 86.8462C47.3298 85.8308 48.848 85.8308 49.5228 86.8462C52.0532 91.0769 56.6079 93.6154 61.5 93.6154C66.3921 93.6154 70.9468 91.0769 73.4772 86.8462C74.152 85.8308 75.6702 85.8308 76.345 86.8462C78.8754 91.0769 83.4301 93.6154 88.3222 93.6154C93.2143 93.6154 97.769 91.0769 100.299 86.8462C100.637 86.3385 101.143 86 101.818 86C102.324 86 102.998 86.3385 103.336 86.8462C105.866 91.0769 110.421 93.6154 115.313 93.6154C116.325 93.6154 117 94.2923 117 95.3077C117 96.3231 116.325 97 115.313 97C110.084 97 105.191 94.6308 101.818 90.5692C98.9498 94.8 94.0578 97 88.661 97H88.6596Z" fill="black"/>
</svg>
