<svg width="171" height="53" viewBox="0 0 171 53" fill="none" xmlns="http://www.w3.org/2000/svg">
<path d="M27.0904 44.7049C16.7884 44.7049 8.3942 36.5364 8.3942 26.5317C8.3942 16.5269 16.7884 8.35842 27.0904 8.35842V0C12.1462 0 0 11.9044 0 26.5317C0 41.1589 12.1462 53.0633 27.0904 53.0633V44.7049Z" fill="#157D3F"/>
<path d="M27.0268 44.7049V36.5364C32.6865 36.5364 37.3288 32.0406 37.3288 26.5316C37.3288 21.0227 32.6865 16.5269 27.0268 16.5269V8.3584C37.2652 8.3584 45.5322 16.5269 45.5322 26.5316C45.5322 36.5364 37.2016 44.7049 27.0268 44.7049Z" fill="#157D3F"/>
<path d="M63.2108 53V44.7049C73.5128 44.7049 81.907 36.5364 81.907 26.5317C81.907 16.5269 73.5128 8.35842 63.2108 8.35842V0C78.1551 0 90.3012 11.9044 90.3012 26.5317C90.3012 41.1589 78.1551 53 63.2108 53Z" fill="#68BD45"/>
<path d="M128.139 28.0514C128.139 29.0645 127.948 30.0777 127.63 30.9642C127.248 31.8507 126.803 32.6105 126.167 33.2437C125.531 33.8769 124.768 34.3835 123.878 34.7634C122.988 35.1434 121.97 35.3333 120.889 35.3333C119.808 35.3333 118.791 35.1434 117.9 34.7634C117.01 34.3835 116.247 33.8769 115.611 33.2437C114.975 32.6105 114.466 31.8507 114.148 30.9642C113.767 30.0777 113.64 29.1278 113.64 28.0514C113.64 26.9749 113.83 26.0251 114.148 25.1386C114.53 24.2521 114.975 23.4922 115.611 22.859C116.247 22.2258 117.01 21.7192 117.9 21.3393C118.791 20.9594 119.808 20.7694 120.889 20.7694C121.97 20.7694 122.988 20.9594 123.878 21.3393C124.768 21.7192 125.531 22.2258 126.167 22.859C126.803 23.4922 127.312 24.2521 127.63 25.1386C127.948 26.0251 128.139 26.9749 128.139 28.0514ZM125.404 28.0514C125.404 27.2915 125.277 26.595 125.086 25.9618C124.896 25.3286 124.578 24.822 124.196 24.3787C123.814 23.9355 123.306 23.6189 122.797 23.3656C122.225 23.1123 121.589 23.049 120.889 23.049C120.19 23.049 119.554 23.1756 118.981 23.3656C118.409 23.6189 117.964 23.9355 117.519 24.3787C117.074 24.822 116.819 25.3286 116.628 25.9618C116.438 26.595 116.311 27.2915 116.311 28.0514C116.311 28.8112 116.438 29.5078 116.628 30.141C116.819 30.7742 117.137 31.2808 117.519 31.724C117.9 32.1673 118.409 32.4839 118.981 32.7372C119.554 32.9904 120.19 33.0538 120.889 33.0538C121.589 33.0538 122.225 32.9271 122.797 32.7372C123.369 32.4839 123.814 32.1673 124.196 31.724C124.578 31.2808 124.896 30.7742 125.086 30.141C125.341 29.5078 125.404 28.8112 125.404 28.0514Z" fill="black"/>
<path d="M142.701 28.0513C142.701 29.0645 142.511 30.0776 142.193 30.9008C141.811 31.7873 141.366 32.5472 140.73 33.1804C140.094 33.8136 139.331 34.3202 138.441 34.6368C137.55 34.9534 136.533 35.1433 135.452 35.1433H129.983V20.9594H135.452C136.533 20.9594 137.55 21.1493 138.441 21.4659C139.331 21.8459 140.094 22.2891 140.73 22.9223C141.366 23.5555 141.875 24.3154 142.193 25.1386C142.574 26.0251 142.701 26.9749 142.701 28.0513ZM139.967 28.0513C139.967 27.2915 139.84 26.595 139.649 25.9617C139.458 25.3285 139.14 24.822 138.759 24.3787C138.377 23.9355 137.868 23.6189 137.36 23.3656C136.787 23.1123 136.151 23.049 135.452 23.049H132.654V33.0537H135.452C136.151 33.0537 136.787 32.9271 137.36 32.7371C137.932 32.4838 138.377 32.1672 138.759 31.724C139.14 31.2807 139.458 30.7742 139.649 30.141C139.903 29.5077 139.967 28.8112 139.967 28.0513Z" fill="black"/>
<path d="M149.569 20.7694C150.142 20.7694 150.65 20.8327 151.159 21.0227C151.604 21.2127 151.986 21.4659 152.367 21.7192C152.685 22.0358 152.94 22.3524 153.131 22.7324C153.321 23.1123 153.449 23.4922 153.449 23.9355L151.477 24.3787C151.477 24.3787 151.096 23.5556 151.032 23.4289C150.968 23.3023 150.841 23.1123 150.714 23.049C150.587 22.9223 150.396 22.859 150.269 22.7957C150.078 22.7324 149.887 22.6691 149.633 22.6691C149.379 22.6691 149.124 22.7324 148.87 22.7957C148.679 22.859 148.488 23.049 148.298 23.1756C148.17 23.3656 148.043 23.4922 147.98 23.7455C147.916 23.9355 147.852 24.1888 147.852 24.4421C147.852 24.632 147.852 24.822 147.916 25.0119C147.98 25.2019 148.043 25.3919 148.107 25.5818C148.17 25.7718 148.298 25.9618 148.488 26.1517C148.616 26.3417 148.806 26.5317 149.061 26.7849L152.876 30.7109C153.067 30.2676 153.258 29.8877 153.385 29.3811C153.512 28.9379 153.703 27.4815 153.703 27.4815H155.674C155.674 28.368 155.547 29.1912 155.293 29.951C155.038 30.7109 154.72 31.4707 154.212 32.1039L157.201 35.2067H154.784C154.657 35.2067 154.53 35.2067 154.466 35.2067C154.339 35.2067 154.275 35.1434 154.212 35.1434C154.148 35.0801 154.021 35.0801 153.957 35.0167C153.894 34.9534 153.767 34.8901 153.703 34.7634L152.685 33.7503C152.05 34.2569 151.35 34.6368 150.587 34.9534C149.824 35.27 148.997 35.3967 148.043 35.3967C147.471 35.3967 146.962 35.3333 146.39 35.1434C145.881 34.9534 145.372 34.7001 144.991 34.3202C144.546 33.9403 144.228 33.5603 143.973 33.0538C143.719 32.5472 143.592 31.9773 143.592 31.3441C143.592 30.9008 143.655 30.4576 143.783 30.0777C143.91 29.6977 144.1 29.3178 144.418 29.0012C144.673 28.6846 144.991 28.368 145.309 28.0514C145.69 27.7981 146.072 27.5448 146.453 27.3548C146.072 26.8483 145.817 26.405 145.69 25.8984C145.5 25.4552 145.436 24.9486 145.436 24.5054C145.436 23.9988 145.5 23.5556 145.69 23.1123C145.881 22.6691 146.135 22.2891 146.453 21.9725C146.771 21.6559 147.217 21.4026 147.725 21.2127C148.361 20.8961 148.933 20.7694 149.569 20.7694ZM146.072 31.0275C146.072 31.4074 146.135 31.724 146.263 31.9773C146.39 32.2939 146.581 32.4839 146.771 32.7372C146.962 32.9271 147.217 33.1171 147.534 33.1804C147.852 33.3071 148.107 33.3704 148.425 33.3704C148.997 33.3704 149.506 33.3071 150.015 33.1171C150.523 32.9271 150.905 32.6738 151.35 32.3572L147.598 28.5579C147.089 28.8746 146.708 29.2545 146.453 29.6977C146.199 30.0777 146.072 30.5209 146.072 31.0275Z" fill="black"/>
<path d="M171 28.0513C171 29.0645 170.809 30.0776 170.491 30.9008C170.11 31.7873 169.665 32.5472 169.029 33.1804C168.393 33.8136 167.63 34.3202 166.739 34.6368C165.849 34.9534 164.832 35.1433 163.75 35.1433H158.282V20.9594H163.75C164.832 20.9594 165.849 21.1493 166.739 21.4659C167.63 21.8459 168.393 22.2891 169.029 22.9223C169.665 23.5555 170.173 24.3154 170.491 25.1386C170.809 26.0251 171 26.9749 171 28.0513ZM168.266 28.0513C168.266 27.2915 168.138 26.595 167.948 25.9617C167.757 25.3285 167.439 24.822 167.057 24.3787C166.676 23.9355 166.167 23.6189 165.658 23.3656C165.086 23.1123 164.45 23.049 163.75 23.049H160.952V33.0537H163.75C164.45 33.0537 165.086 32.9271 165.658 32.7371C166.231 32.4838 166.676 32.1672 167.057 31.724C167.439 31.2807 167.757 30.7742 167.948 30.141C168.202 29.5077 168.266 28.8112 168.266 28.0513Z" fill="black"/>
<path d="M66.0089 26.5317C66.0089 11.9044 53.8627 0 38.9185 0V8.35842C49.2205 8.35842 57.6147 16.5269 57.6147 26.5317C57.6147 36.5364 49.2205 44.7049 38.9185 44.7049V53.0633C53.8627 53 66.0089 41.1589 66.0089 26.5317Z" fill="#038647"/>
</svg>
