<svg width="382" height="959" viewBox="0 0 382 959" fill="none" xmlns="http://www.w3.org/2000/svg">
<rect x="0.701172" y="211.094" width="380.597" height="747" fill="#CCD1FF"/>
<mask id="mask0_19_86" style="mask-type:alpha" maskUnits="userSpaceOnUse" x="1" y="0" width="380" height="293">
<rect x="1" width="380" height="293" fill="#D9D9D9"/>
</mask>
<g mask="url(#mask0_19_86)">
<path d="M-110.214 78.4404L-117.308 87.6578C-123.818 96.1171 -133.023 102.099 -143.397 104.611C-160.144 108.668 -173.311 121.593 -177.676 138.263L-185.004 166.244C-200.413 225.088 -157.467 283.101 -96.6876 285.543L372.806 304.406C441.848 307.18 498.297 249.937 494.558 180.94L488.048 60.802C485.778 18.9196 437.804 -3.59065 404.142 21.4322C392.671 29.9588 378.225 33.4508 364.126 31.1047L337.4 26.6574C324.099 24.4442 310.44 26.2813 298.197 31.93L292.376 34.6157C275.194 42.5433 255.157 41.1726 239.215 30.979C223.5 20.9315 203.791 19.4469 186.749 27.0271L162.195 37.9484C148.745 43.9308 133.4 43.9819 119.91 38.0891L113.647 35.353C97.0553 28.1051 77.6973 32.0966 65.3261 45.3164C57.2441 53.9528 45.9447 58.8541 34.1165 58.8541H1.13121C-7.7991 58.8541 -16.6567 57.2487 -25.0189 54.1143C-55.6776 42.6227 -90.2457 52.493 -110.214 78.4404Z" fill="#CCD1FF"/>
</g>
</svg>
