<svg width="1280" height="594" viewBox="0 0 1280 594" fill="none" xmlns="http://www.w3.org/2000/svg">
<rect y="471" width="1280" height="123" fill="#CCD1FF"/>
<mask id="mask0_18_85" style="mask-type:alpha" maskUnits="userSpaceOnUse" x="0" y="0" width="1280" height="513">
<rect width="1280" height="513" fill="#E5ECE8"/>
</mask>
<g mask="url(#mask0_18_85)">
<path d="M148.91 266.919L116.183 299.079C101.652 313.359 83.1734 322.953 63.1339 326.624C27.0075 333.241 -2.76058 358.791 -14.7784 393.497L-33.5854 447.808C-60.0774 524.313 -4.76038 604.56 76.1639 607.019L1259.16 642.964C1330.23 645.123 1387.58 585.363 1382.5 514.442L1366.75 294.603C1360.46 206.904 1265.05 155.573 1188.41 198.659C1166.01 211.247 1140.17 216.31 1114.68 213.103L1039.02 203.581C1020.64 201.269 1001.99 203.24 984.502 209.341L950.343 221.259C920.266 231.754 887.25 229.858 858.572 215.991L842.684 208.309C814.425 194.645 781.938 192.597 752.187 202.604L685.914 224.897C661.303 233.175 634.67 233.247 610.014 225.102L585.156 216.89C553.413 206.403 518.516 212.764 492.514 233.777C475.019 247.914 453.207 255.626 430.714 255.626H347.924C336.858 255.626 325.845 254.095 315.198 251.077L265.744 237.059C224.263 225.301 179.663 236.7 148.91 266.919Z" fill="#CCD1FF"/>
</g>
</svg>
