<svg width="1279" height="257" viewBox="0 0 1279 257" fill="none" xmlns="http://www.w3.org/2000/svg">
<path d="M132.158 74.462L116.38 92.7947C96.301 116.126 64.577 125.801 34.8948 117.647C-11.6178 104.869 -58.7257 136.032 -65.1612 183.836L-70.2641 221.742C-79.2135 288.221 -28.6648 347.834 38.3824 349.871L1261.09 387.022C1331.46 389.161 1388.55 330.534 1384.54 260.242L1375.54 102.556C1371.51 31.9486 1292.7 -7.95416 1233.41 30.5944L1228.93 33.5019C1199.74 52.4805 1161.89 51.5609 1133.65 31.1871L1122.44 23.0947C1090.75 0.233711 1046.52 7.48177 1023.8 39.2593C1002.03 69.6949 960.279 77.8338 928.671 57.804L870.26 20.7885C832.833 -2.92937 784.839 -1.91674 748.446 23.3586C712.107 48.5958 664.197 49.6468 626.787 26.0272L615.189 18.7051C578.881 -4.21874 533.091 -5.99533 495.116 14.0464L491.476 15.9672L442.087 49.2572C411.994 69.5406 374.339 75.1163 339.66 64.4238L256.249 38.706C211.455 24.8949 162.735 38.9333 132.158 74.462Z" fill="#CCD1FF"/>
</svg>
